<svg width="414" height="372" xmlns="http://www.w3.org/2000/svg" preserveAspectRatio="xMidYMid meet">

 <g>
  <title>background</title>
  <rect fill="none" id="canvas_background" height="402" width="582" y="-1" x="-1"/>
 </g>
 <g>
  <title>Layer 1</title>
  <g id="svg_1" fill="#000000" transform="translate(0,372) scale(0.10000000149011612,-0.10000000149011612) ">
   <path fill="#1e266c" id="svg_2" d="m1163,3685c-83,-23 -151,-62 -212,-123c-50,-49 -117,-159 -477,-782c-465,-806 -460,-795 -450,-947c3,-53 13,-103 28,-140c13,-32 208,-377 432,-768c443,-769 457,-790 575,-849c112,-57 93,-56 1011,-56c918,0 899,-1 1011,56c117,59 131,80 585,864c465,806 460,795 450,947c-3,53 -13,103 -28,140c-13,32 -208,378 -432,768c-443,769 -457,790 -575,849c-112,57 -92,56 -1016,55c-698,0 -859,-3 -902,-14z"/>
  </g>
 </g>
</svg>