<?xml version="1.0" standalone="no"?>
<!DOCTYPE svg PUBLIC "-//W3C//DTD SVG 20010904//EN"
 "http://www.w3.org/TR/2001/REC-SVG-20010904/DTD/svg10.dtd">
<svg version="1.0" xmlns="http://www.w3.org/2000/svg"
 width="299.000000pt" height="186.000000pt" viewBox="0 0 299.000000 186.000000"
 preserveAspectRatio="xMidYMid meet">

<g transform="translate(0.000000,186.000000) scale(0.100000,-0.100000)"
fill="#000000" stroke="none">
<path d="M1542 1724 c-229 -61 -355 -330 -268 -572 36 -99 128 -187 221 -211
22 -5 166 -15 319 -20 307 -12 307 -12 325 -77 16 -60 -5 -120 -63 -178 -28
-28 -58 -55 -67 -61 -14 -8 -18 -32 -22 -117 -5 -108 -5 -108 19 -108 39 0
177 48 224 78 94 60 151 136 176 231 50 197 -76 420 -263 465 -37 9 -147 17
-302 21 -285 7 -302 11 -334 83 -47 109 35 272 137 272 l26 0 0 105 0 105 -37
-1 c-21 0 -62 -7 -91 -15z"/>
<path d="M2450 1039 l0 -702 123 115 122 116 2 483 3 484 -120 103 c-66 56
-122 102 -125 102 -3 0 -5 -316 -5 -701z"/>
<path d="M585 1143 c-171 -318 -336 -626 -368 -685 l-58 -109 161 3 161 3 191
418 c105 229 194 417 197 417 3 0 46 -83 95 -185 l89 -185 158 0 c88 0 159 2
159 5 0 7 -460 879 -468 887 -4 4 -147 -252 -317 -569z"/>
<path d="M1232 583 c-29 -2 -52 -8 -50 -12 2 -5 26 -56 53 -114 l50 -107 158
0 c86 0 157 3 157 8 -1 4 -26 57 -58 117 l-57 110 -100 1 c-55 0 -124 -1 -153
-3z"/>
<path d="M181 180 c-18 -39 -31 -74 -28 -77 9 -8 27 7 27 23 0 24 67 19 75 -6
3 -11 13 -20 20 -20 10 0 5 18 -17 68 -16 37 -33 71 -37 75 -4 4 -22 -24 -40
-63z m49 -1 c0 -5 -7 -9 -15 -9 -9 0 -12 6 -9 15 6 15 24 11 24 -6z"/>
<path d="M303 235 c-11 -30 4 -118 23 -132 23 -17 35 -16 59 1 16 11 20 27 20
77 0 41 -4 64 -12 66 -10 4 -13 -13 -13 -61 0 -64 -1 -66 -25 -66 -24 0 -25 2
-25 65 0 62 -13 85 -27 50z"/>
<path d="M437 243 c-4 -3 -7 -37 -7 -75 l0 -68 45 0 c80 0 114 72 60 125 -23
24 -82 35 -98 18z m87 -34 c14 -13 11 -70 -5 -80 -8 -5 -24 -9 -36 -9 -21 0
-23 5 -23 55 0 55 0 55 28 49 15 -4 31 -10 36 -15z"/>
<path d="M580 175 c0 -43 4 -75 10 -75 6 0 10 32 10 75 0 43 -4 75 -10 75 -6
0 -10 -32 -10 -75z"/>
<path d="M649 231 c-51 -41 -16 -134 50 -134 59 0 94 59 67 112 -24 45 -76 55
-117 22z m82 -11 c22 -12 27 -68 7 -88 -15 -15 -61 -15 -76 0 -17 17 -15 64 4
82 18 19 38 20 65 6z"/>
<path d="M857 243 c-16 -15 -5 -51 25 -76 24 -21 28 -31 19 -40 -9 -9 -16 -9
-31 1 -29 18 -35 -5 -5 -24 24 -16 27 -16 45 1 28 25 25 47 -11 79 -22 20 -28
31 -20 39 7 7 14 7 24 -1 18 -15 30 -3 16 15 -12 14 -51 18 -62 6z"/>
<path d="M950 240 c0 -5 9 -24 20 -42 11 -18 20 -48 20 -65 0 -18 5 -33 10
-33 6 0 10 16 10 35 0 19 9 49 20 67 22 37 25 48 10 48 -6 0 -16 -11 -22 -25
-6 -14 -14 -25 -18 -25 -4 0 -13 11 -20 25 -13 25 -30 34 -30 15z"/>
<path d="M1077 244 c-15 -15 -6 -51 18 -74 14 -13 25 -29 25 -37 0 -16 -22
-17 -37 -2 -7 7 -13 7 -17 1 -3 -5 3 -17 14 -27 18 -16 21 -17 45 -1 33 22 32
42 -5 74 -31 28 -39 52 -17 52 7 0 19 -6 26 -12 10 -11 12 -9 9 7 -3 20 -46
33 -61 19z"/>
<path d="M1160 240 c0 -5 7 -10 15 -10 12 0 15 -14 15 -65 0 -37 4 -65 10 -65
6 0 10 28 10 65 0 51 3 65 15 65 8 0 15 5 15 10 0 6 -18 10 -40 10 -22 0 -40
-4 -40 -10z"/>
<path d="M1260 175 l0 -75 46 0 c27 0 43 4 39 10 -3 6 -19 10 -36 10 -24 0
-29 4 -29 25 0 22 4 25 36 25 21 0 33 4 29 10 -3 6 -19 10 -36 10 -22 0 -29 5
-29 20 0 16 7 20 36 20 21 0 33 4 29 10 -3 6 -24 10 -46 10 l-39 0 0 -75z"/>
<path d="M1376 223 c-3 -16 -8 -49 -12 -75 -8 -61 11 -65 23 -6 l8 42 19 -42
c11 -23 23 -42 28 -42 4 0 16 18 24 41 18 44 34 38 34 -13 0 -16 5 -28 11 -28
11 0 4 124 -9 145 -3 5 -18 -18 -33 -50 l-27 -60 -27 58 c-14 31 -28 57 -30
57 -2 0 -6 -12 -9 -27z"/>
<path d="M1600 175 c0 -43 4 -75 10 -75 6 0 10 32 10 75 0 43 -4 75 -10 75 -6
0 -10 -32 -10 -75z"/>
<path d="M1650 177 c0 -45 4 -77 10 -77 6 0 10 21 10 48 l1 47 42 -48 c23 -26
46 -47 50 -47 14 0 3 143 -10 148 -9 2 -13 -11 -13 -45 l-1 -48 -44 50 -45 49
0 -77z"/>
<path d="M1796 243 c-3 -4 -6 -37 -6 -75 0 -54 3 -68 15 -68 11 0 15 12 15 47
l0 47 45 -49 44 -50 1 78 c0 85 -17 107 -22 28 l-3 -50 -41 49 c-23 27 -44 46
-48 43z"/>
<path d="M1967 238 c-66 -51 -9 -167 67 -138 30 11 56 47 56 78 0 53 -80 92
-123 60z m83 -28 c24 -24 25 -38 4 -68 -20 -28 -69 -30 -84 -3 -14 28 -12 52
7 73 21 24 48 23 73 -2z"/>
<path d="M2119 203 c29 -72 44 -103 50 -103 6 0 61 130 61 143 0 23 -21 0 -40
-44 l-22 -51 -23 51 c-30 65 -51 68 -26 4z"/>
<path d="M2286 202 c-42 -82 -48 -102 -31 -102 7 0 17 9 20 20 9 28 58 27 78
-2 30 -46 27 -9 -6 63 l-34 74 -27 -53z m44 -34 c0 -5 -7 -8 -15 -8 -15 0 -20
21 -8 33 7 7 23 -11 23 -25z"/>
<path d="M2385 240 c-3 -5 3 -10 14 -10 19 0 21 -6 21 -65 0 -37 4 -65 10 -65
6 0 10 28 10 65 0 51 3 65 15 65 8 0 15 5 15 10 0 6 -18 10 -39 10 -22 0 -43
-4 -46 -10z"/>
<path d="M2480 176 c0 -62 3 -76 15 -76 13 0 15 12 13 72 -2 46 -7 73 -15 76
-10 3 -13 -16 -13 -72z"/>
<path d="M2552 227 c-56 -59 1 -154 75 -126 54 20 69 76 32 123 -27 34 -77 36
-107 3z m88 -17 c11 -11 20 -28 20 -37 0 -46 -79 -73 -100 -34 -14 28 -12 52
7 73 21 24 48 23 73 -2z"/>
<path d="M2706 243 c-3 -3 -6 -37 -6 -75 0 -54 3 -68 15 -68 11 0 15 12 15 47
l0 47 45 -49 44 -50 1 78 c0 85 -17 107 -22 26 l-3 -51 -41 51 c-23 28 -44 48
-48 44z"/>
</g>
</svg>
